<?xml version="1.0" encoding="UTF-8" standalone="no"?><!DOCTYPE svg PUBLIC "-//W3C//DTD SVG 1.1//EN" "http://www.w3.org/Graphics/SVG/1.1/DTD/svg11.dtd"><svg width="100%" height="100%" viewBox="0 0 424 395" version="1.1" xmlns="http://www.w3.org/2000/svg" xmlns:xlink="http://www.w3.org/1999/xlink" xml:space="preserve" xmlns:serif="http://www.serif.com/" style="fill-rule:evenodd;clip-rule:evenodd;stroke-linejoin:round;stroke-miterlimit:2;"><path d="M144.244,39.346l-134.15,240.796c-37.271,66.887 35.775,141.062 103.229,104.825l98.988,-53.18l97.437,52.35c67.583,36.305 140.671,-38.187 103.096,-105.066l-134.817,-239.963c-14.65,-26.079 -40.737,-39.104 -66.821,-39.108c-26.179,0 -52.354,13.125 -66.962,39.346Zm-65.567,238.521l101.484,-186.117c16.65,-30.542 60.658,-30.1 76.691,0.762l45.542,87.638c8.417,16.192 2.425,36.137 -13.513,45.021l-168.587,93.937c-4.988,2.779 -10.079,4.017 -14.963,4.017c-21.241,0.004 -38.554,-23.433 -26.654,-45.258Z" style="fill:url(#_Linear1);fill-rule:nonzero;"/><path d="M345.577,260.388l-132.758,72.229l97.433,52.345c67.579,36.309 140.675,-38.183 103.104,-105.062l-0.004,0c-9.204,-16.383 -26.25,-25.625 -43.821,-25.629c-8.112,-0 -16.333,1.971 -23.954,6.117Z" style="fill:url(#_Linear2);fill-rule:nonzero;"/><path d="M180.161,91.75l-101.484,186.117c-14.633,26.837 14.917,56.116 41.617,41.241l168.587,-93.937c15.938,-8.884 21.93,-28.829 13.513,-45.021l-45.542,-87.637c-8.096,-15.584 -23.321,-23.409 -38.558,-23.409c-14.942,-0.004 -29.888,7.525 -38.133,22.646Zm-45.667,161.858l72.196,-132.4c4.571,-8.379 16.646,-8.262 21.046,0.213l34.266,65.933c3.304,6.363 0.95,14.192 -5.308,17.679l-109.596,61.067c-1.512,0.842 -3.054,1.217 -4.533,1.217c-6.429,-0 -11.675,-7.1 -8.071,-13.709Z" style="fill:url(#_Linear3);fill-rule:nonzero;"/><defs><linearGradient id="_Linear1" x1="0" y1="0" x2="1" y2="0" gradientUnits="userSpaceOnUse" gradientTransform="matrix(-351.052,455.563,-455.563,-351.052,390.821,51.0071)"><stop offset="0" style="stop-color:#0ff;stop-opacity:1"/><stop offset="1" style="stop-color:#0071bc;stop-opacity:1"/></linearGradient><linearGradient id="_Linear2" x1="0" y1="0" x2="1" y2="0" gradientUnits="userSpaceOnUse" gradientTransform="matrix(-128.588,-87.3301,87.3301,-128.588,403.147,364.228)"><stop offset="0" style="stop-color:#0ff;stop-opacity:1"/><stop offset="1" style="stop-color:#0071bc;stop-opacity:1"/></linearGradient><linearGradient id="_Linear3" x1="0" y1="0" x2="1" y2="0" gradientUnits="userSpaceOnUse" gradientTransform="matrix(464.18,-368.812,368.812,464.18,-8.31873,349.452)"><stop offset="0" style="stop-color:#0ff;stop-opacity:1"/><stop offset="1" style="stop-color:#0071bc;stop-opacity:1"/></linearGradient></defs></svg>