<?xml version="1.0" encoding="UTF-8" standalone="no"?><!DOCTYPE svg PUBLIC "-//W3C//DTD SVG 1.1//EN" "http://www.w3.org/Graphics/SVG/1.1/DTD/svg11.dtd"><svg width="100%" height="100%" viewBox="0 0 484 102" version="1.1" xmlns="http://www.w3.org/2000/svg" xmlns:xlink="http://www.w3.org/1999/xlink" xml:space="preserve" xmlns:serif="http://www.serif.com/" style="fill-rule:evenodd;clip-rule:evenodd;stroke-linejoin:round;stroke-miterlimit:2;"><path d="M567.706,158.01l65.245,-17.066l-28.387,-56.775l-36.858,73.841Zm81.387,14.938l-141.1,32.283l96.571,-193.141l96.571,193.141l-35.9,0l-16.142,-32.283Z" style="fill:#1b2a58;fill-rule:nonzero;"/><path d="M749.867,12.087l60.671,121.067l60.666,-121.067l35.9,0l-96.566,193.142l-96.571,-193.142l35.9,0Z" style="fill:#1b2a58;fill-rule:nonzero;"/><rect x="985.006" y="12.088" width="32.004" height="193.142" style="fill:#1b2a58;"/><path d="M1167.14,160.73l66.667,-19.787l-28.384,-56.775l-38.283,76.562Zm82.808,12.217l-141.095,32.283l96.57,-193.141l96.567,193.141l-35.9,0l-16.142,-32.283Z" style="fill:#1b2a58;fill-rule:nonzero;"/><path d="M1328.7,12.087l161.142,0l-0,32.284l-64.292,-0l-0,160.858l-32.283,0l-0,-160.858l-64.567,-0l-0,-32.284Z" style="fill:#1b2a58;fill-rule:nonzero;"/><path d="M1656.27,44.369c-17.625,0 -32.837,6.313 -45.641,18.925c-12.434,12.621 -18.646,27.738 -18.646,45.367c-0,17.629 6.212,32.841 18.646,45.641c12.804,12.43 28.016,18.646 45.641,18.646c17.625,0 32.742,-6.216 45.367,-18.646c12.613,-12.8 18.925,-28.012 18.925,-45.641c0,-17.629 -6.312,-32.746 -18.925,-45.367c-12.625,-12.612 -27.742,-18.925 -45.367,-18.925m0,-32.283c26.717,-0 49.442,9.462 68.184,28.387c19.108,18.925 28.666,41.654 28.666,68.188c0,26.9 -9.558,49.629 -28.666,68.183c-18.742,18.921 -41.467,28.388 -68.184,28.388c-26.716,-0 -49.445,-9.467 -68.183,-28.388c-18.925,-18.742 -28.387,-41.467 -28.387,-68.183c-0,-26.534 9.462,-49.263 28.387,-68.188c18.55,-18.925 41.279,-28.387 68.183,-28.387" style="fill:#1b2a58;fill-rule:nonzero;"/><path d="M1941.53,44.369l-64.567,0l-0,64.013l64.567,0.279c8.72,-0 16.233,-3.154 22.541,-9.467c6.309,-6.3 9.467,-13.917 9.467,-22.817c-0,-8.72 -3.158,-16.237 -9.467,-22.545c-6.308,-6.305 -13.821,-9.463 -22.541,-9.463m27.275,160.863l-37.292,-64.288l-54.55,0l-0,64.288l-32.004,-0l-0,-193.146l96.571,-0c17.625,-0 32.741,6.312 45.366,18.929c12.613,12.621 18.925,27.733 18.925,45.362c0,13.359 -3.804,25.509 -11.416,36.459c-7.421,10.762 -16.88,18.462 -28.384,23.1l39.8,69.296l-37.016,-0Z" style="fill:#1b2a58;fill-rule:nonzero;"/><path d="M523.174,279.161l11.342,0l0,56.996l34.217,0l-0,11.438l-45.559,-0l0,-68.434Z" style="fill:#1b2a58;fill-rule:nonzero;"/><path d="M678.676,290.599c-6.246,0 -11.634,2.238 -16.171,6.704c-4.4,4.471 -6.609,9.83 -6.609,16.075c0,6.246 2.209,11.634 6.609,16.171c4.537,4.404 9.925,6.609 16.171,6.609c6.245,-0 11.604,-2.205 16.075,-6.609c4.47,-4.537 6.704,-9.925 6.704,-16.171c-0,-6.245 -2.234,-11.604 -6.704,-16.075c-4.471,-4.466 -9.83,-6.704 -16.075,-6.704m-0,-11.437c9.466,-0 17.52,3.354 24.162,10.054c6.767,6.708 10.154,14.762 10.154,24.162c0,9.53 -3.387,17.588 -10.154,24.159c-6.642,6.704 -14.696,10.058 -24.162,10.058c-9.463,0 -17.517,-3.354 -24.159,-10.058c-6.704,-6.642 -10.058,-14.692 -10.058,-24.159c-0,-9.4 3.354,-17.454 10.058,-24.162c6.575,-6.7 14.629,-10.054 24.159,-10.054" style="fill:#1b2a58;fill-rule:nonzero;"/><path d="M831.024,279.161c4.737,0 9.17,0.888 13.312,2.663c4.142,1.775 7.788,4.237 10.946,7.396l-8.183,8.083c-4.405,-4.467 -9.763,-6.704 -16.075,-6.704c-6.246,-0 -11.634,2.237 -16.171,6.704c-4.4,4.471 -6.609,9.829 -6.609,16.075c0,6.246 2.209,11.633 6.609,16.171c4.537,4.404 9.925,6.608 16.171,6.608c3.416,0 6.591,-0.675 9.516,-2.025c2.925,-1.346 5.475,-3.233 7.642,-5.667l-0,-9.37l-17.158,-0l-0,-11.338l28.595,0l0,24.454c-1.579,2.304 -3.4,4.404 -5.47,6.313c-2.071,1.908 -4.321,3.533 -6.755,4.879c-2.433,1.35 -5.029,2.383 -7.787,3.108c-2.767,0.721 -5.625,1.084 -8.583,1.084c-9.463,-0 -17.517,-3.355 -24.159,-10.059c-6.704,-6.637 -10.058,-14.691 -10.058,-24.158c-0,-9.4 3.354,-17.454 10.058,-24.158c6.642,-6.705 14.696,-10.059 24.159,-10.059" style="fill:#1b2a58;fill-rule:nonzero;"/><path d="M980.515,336.156c1.121,-0 2.2,-0.213 3.254,-0.642c1.05,-0.425 1.975,-1.033 2.758,-1.825c0.792,-0.787 1.4,-1.708 1.829,-2.758c0.425,-1.05 0.638,-2.138 0.638,-3.254c-0,-1.117 -0.213,-2.204 -0.638,-3.254c-0.429,-1.05 -1.02,-1.975 -1.775,-2.763c-0.758,-0.787 -1.662,-1.412 -2.712,-1.875c-1.05,-0.458 -2.171,-0.687 -3.354,-0.687l-25.738,-0l0,17.058l25.738,-0Zm-0,-45.558l-25.738,-0l0,17.158l25.738,-0c1.121,-0 2.2,-0.229 3.254,-0.688c1.05,-0.462 1.975,-1.087 2.758,-1.875c0.792,-0.791 1.4,-1.708 1.829,-2.762c0.425,-1.05 0.638,-2.167 0.638,-3.35c-0,-1.121 -0.213,-2.204 -0.638,-3.254c-0.429,-1.054 -1.037,-1.975 -1.829,-2.763c-0.783,-0.787 -1.708,-1.396 -2.758,-1.825c-1.054,-0.425 -2.133,-0.641 -3.254,-0.641m13.904,22.779c4.008,3.879 6.012,8.646 6.012,14.3c0,2.696 -0.525,5.258 -1.575,7.691c-1.054,2.434 -2.479,4.55 -4.287,6.359c-1.813,1.808 -3.929,3.237 -6.363,4.291c-2.429,1.05 -5,1.575 -7.691,1.575l-37.075,0l-0,-68.433l37.075,0c2.629,0 5.175,0.529 7.641,1.579c2.467,1.05 4.6,2.479 6.413,4.288c1.808,1.812 3.233,3.929 4.287,6.362c1.05,2.429 1.575,4.996 1.575,7.692c0,5.587 -2.004,10.35 -6.012,14.296" style="fill:#1b2a58;fill-rule:nonzero;"/><path d="M1118.46,290.599c-6.246,0 -11.633,2.238 -16.171,6.704c-4.4,4.471 -6.608,9.83 -6.608,16.075c0,6.246 2.208,11.634 6.608,16.171c4.538,4.404 9.925,6.609 16.171,6.609c6.246,-0 11.604,-2.205 16.075,-6.609c4.471,-4.537 6.704,-9.925 6.704,-16.171c0,-6.245 -2.233,-11.604 -6.704,-16.075c-4.471,-4.466 -9.829,-6.704 -16.075,-6.704m0,-11.437c9.467,-0 17.521,3.354 24.163,10.054c6.766,6.708 10.154,14.762 10.154,24.162c-0,9.53 -3.388,17.588 -10.154,24.159c-6.642,6.704 -14.696,10.058 -24.163,10.058c-9.462,0 -17.516,-3.354 -24.158,-10.058c-6.704,-6.642 -10.058,-14.692 -10.058,-24.159c-0,-9.4 3.354,-17.454 10.058,-24.162c6.575,-6.7 14.629,-10.054 24.158,-10.054" style="fill:#1b2a58;fill-rule:nonzero;"/><path d="M1270.81,290.599c-6.246,0 -11.633,2.238 -16.171,6.704c-4.4,4.471 -6.608,9.83 -6.608,16.075c0,6.246 2.208,11.634 6.608,16.171c4.538,4.404 9.925,6.609 16.171,6.609c6.246,-0 11.604,-2.205 16.075,-6.609c4.471,-4.537 6.704,-9.925 6.704,-16.171c0,-6.245 -2.233,-11.604 -6.704,-16.075c-4.471,-4.466 -9.829,-6.704 -16.075,-6.704m0,-11.437c9.467,-0 17.521,3.354 24.163,10.054c6.766,6.708 10.154,14.762 10.154,24.162c-0,9.53 -3.388,17.588 -10.154,24.159c-6.642,6.704 -14.696,10.058 -24.163,10.058c-9.462,0 -17.516,-3.354 -24.158,-10.058c-6.704,-6.642 -10.058,-14.692 -10.058,-24.159c-0,-9.4 3.354,-17.454 10.058,-24.162c6.575,-6.7 14.629,-10.054 24.158,-10.054" style="fill:#1b2a58;fill-rule:nonzero;"/><path d="M1411.72,313.377l34.217,34.217l-16.075,0l-29.579,-29.383l-0,29.383l-11.342,0l0,-68.433l11.342,-0l-0,29.483l29.579,-29.483l16.075,-0l-34.217,34.216Z" style="fill:#1b2a58;fill-rule:nonzero;"/><path d="M144.244,39.346l-134.15,240.796c-37.271,66.887 35.775,141.062 103.229,104.825l98.988,-53.18l97.437,52.35c67.583,36.305 140.671,-38.187 103.096,-105.066l-134.817,-239.963c-14.65,-26.079 -40.737,-39.104 -66.821,-39.108c-26.179,0 -52.354,13.125 -66.962,39.346Zm-65.567,238.521l101.484,-186.117c16.65,-30.542 60.658,-30.1 76.691,0.762l45.542,87.638c8.417,16.192 2.425,36.137 -13.513,45.021l-168.587,93.937c-4.988,2.779 -10.079,4.017 -14.963,4.017c-21.241,0.004 -38.554,-23.433 -26.654,-45.258Z" style="fill:url(#_Linear1);fill-rule:nonzero;"/><path d="M345.577,260.388l-132.758,72.229l97.433,52.345c67.579,36.309 140.675,-38.183 103.104,-105.062l-0.004,0c-9.204,-16.383 -26.25,-25.625 -43.821,-25.629c-8.112,-0 -16.333,1.971 -23.954,6.117Z" style="fill:url(#_Linear2);fill-rule:nonzero;"/><path d="M180.161,91.75l-101.484,186.117c-14.633,26.837 14.917,56.116 41.617,41.241l168.587,-93.937c15.938,-8.884 21.93,-28.829 13.513,-45.021l-45.542,-87.637c-8.096,-15.584 -23.321,-23.409 -38.558,-23.409c-14.942,-0.004 -29.888,7.525 -38.133,22.646Zm-45.667,161.858l72.196,-132.4c4.571,-8.379 16.646,-8.262 21.046,0.213l34.266,65.933c3.304,6.363 0.95,14.192 -5.308,17.679l-109.596,61.067c-1.512,0.842 -3.054,1.217 -4.533,1.217c-6.429,-0 -11.675,-7.1 -8.071,-13.709Z" style="fill:url(#_Linear3);fill-rule:nonzero;"/><defs><linearGradient id="_Linear1" x1="0" y1="0" x2="1" y2="0" gradientUnits="userSpaceOnUse" gradientTransform="matrix(-351.052,455.563,-455.563,-351.052,390.821,51.0071)"><stop offset="0" style="stop-color:#0ff;stop-opacity:1"/><stop offset="1" style="stop-color:#0071bc;stop-opacity:1"/></linearGradient><linearGradient id="_Linear2" x1="0" y1="0" x2="1" y2="0" gradientUnits="userSpaceOnUse" gradientTransform="matrix(-128.588,-87.3301,87.3301,-128.588,403.147,364.228)"><stop offset="0" style="stop-color:#0ff;stop-opacity:1"/><stop offset="1" style="stop-color:#0071bc;stop-opacity:1"/></linearGradient><linearGradient id="_Linear3" x1="0" y1="0" x2="1" y2="0" gradientUnits="userSpaceOnUse" gradientTransform="matrix(464.18,-368.812,368.812,464.18,-8.31873,349.452)"><stop offset="0" style="stop-color:#0ff;stop-opacity:1"/><stop offset="1" style="stop-color:#0071bc;stop-opacity:1"/></linearGradient></defs></svg>